<?xml version="1.0" encoding="UTF-8" standalone="no"?>
<!-- Created with Inkscape (http://www.inkscape.org/) -->

<svg
   width="137.82169mm"
   height="36.861038mm"
   viewBox="0 0 137.82169 36.861038"
   version="1.1"
   id="svg5"
   xml:space="preserve"
   xmlns="http://www.w3.org/2000/svg"
   xmlns:svg="http://www.w3.org/2000/svg"><defs
     id="defs2"><clipPath
       id="clip1"><path
         d="M 0,0 H 611 V 620.89062 H 0 Z m 0,0"
         id="path2118" /></clipPath><clipPath
       id="clip2"><path
         d="m 1630,0 h 501 v 620.89062 h -501 z m 0,0"
         id="path2121" /></clipPath><clipPath
       id="clip4"><path
         d="m 987,0 h 646 V 620.89062 H 987 Z m 0,0"
         id="path2127" /></clipPath><clipPath
       id="clip5"><path
         d="m 574,0 h 501 V 620.89062 H 574 Z m 0,0"
         id="path2130" /></clipPath></defs><g
     id="layer1"
     transform="matrix(0.75139473,0,0,1.2338688,-18.271141,-107.43301)"><g
       id="g103"
       transform="matrix(0.03908081,0,0,0.03908081,72.022635,147.12116)"><g
         id="surface1"
         transform="matrix(1.1983559,0,0,1.1983559,-9606.8029,-1152.9495)" /><g
         id="g3086"><g
           id="g3103"><path
             d="m 302.02543,-641.99182 c -840.98125,0 -1522.73533,-200.26197 -1522.73533,-447.29728 0,-247.0371 681.75408,-447.2991 1522.73533,-447.2991 840.98577,0 1522.73607,200.262 1522.73607,447.2991 0,247.03531 -681.7503,447.29728 -1522.73607,447.29728 z m 233.08125,-719.71798 c -639.22068,0 -1157.41121,136.9078 -1157.41121,305.7918 0,168.88411 518.19053,305.79188 1157.41121,305.79188 639.21682,0 1110.94992,-93.60032 1110.94992,-305.79188 0,-212.1247 -471.7331,-305.7918 -1110.94992,-305.7918 z"
             fill="url(#gradientFill-1)"
             fill-rule="evenodd"
             id="path87"
             style="fill:#cccccc;stroke-width:2.79705" /><path
             d="m 2052.4436,-909.41279 c 0,0 37.8791,11.43023 59.8856,22.56544 7.6357,3.86398 20.8471,11.57434 30.3766,21.69762 9.3353,9.9149 13.8865,19.96195 13.8865,19.96195 l 149.2798,251.69253 -241.2777,0.10757 -112.8277,-211.87665 c 0,0 -23.1038,-39.69611 -37.32,-51.2064 -11.8592,-9.60073 -16.9155,-13.01861 -28.6409,-13.01861 -8.1619,0 -57.3268,0 -57.3268,0 l 0.045,275.94891 -213.5049,0.0902 v -704.89207 h 428.7453 c 0,0 195.2788,3.5218 195.2788,189.311 0,185.78902 -186.5998,199.6184 -186.5998,199.6184 z m -92.8657,-236.02881 -129.2538,-0.083 -0.065,119.8579 129.3178,-0.043 c 0,0 59.8857,-0.185 59.8857,-60.9705 0,-62.0067 -59.8857,-58.7625 -59.8857,-58.7625 z"
             fill="url(#gradientFill-2)"
             fill-rule="evenodd"
             id="path89"
             style="fill:#006a97;fill-opacity:0.53115;stroke-width:1.73581" /><g
             clip-path="url(#clip1)"
             clip-rule="nonzero"
             id="g2137"
             transform="matrix(0.80953537,0,0,0.80953537,-814.30687,-1096.0206)"><path
               style="fill:#007aa8;fill-opacity:1;fill-rule:nonzero;stroke:none"
               d="M 610.01562,0 558.22656,137.95312 H 189.67969 c -28.60547,0.0156 -51.77735,23.21485 -51.76563,51.81641 0.0156,28.58203 23.1836,51.75 51.76563,51.76172 h 230.65625 c 104.75781,0 189.67968,84.92187 189.67968,189.67969 0,104.75781 -84.92187,189.67968 -189.67968,189.67968 H 0 L 51.789063,482.80469 H 420.33594 c 28.60156,0 51.78906,-23.1875 51.78906,-51.78907 0,-28.60156 -23.1875,-51.78906 -51.78906,-51.78906 H 189.67969 C 84.957031,376.49219 2.28125,289.37891 5.019531,184.66016 7.65625,83.785156 88.804688,2.636719 189.67969,0 h 420.33593"
               id="path2135" /></g><g
             clip-path="url(#clip2)"
             clip-rule="nonzero"
             id="g2141"
             transform="matrix(0.58628332,0,0,0.58628332,-678.11962,-957.32992)"><path
               style="fill:#007aa8;fill-opacity:1;fill-rule:nonzero;stroke:none"
               d="m 1682.5117,0 -51.7304,137.95312 h 172.457 v 482.8086 h 137.9531 v -482.8086 h 137.8867 L 2130.8086,0 h -448.2969"
               id="path2139" /></g><g
             clip-path="url(#clip4)"
             clip-rule="nonzero"
             id="g2149"
             transform="matrix(0.58628332,0,0,0.58628332,-678.11962,-957.32992)"
             style="fill:#000000"><path
               style="fill:#000000;fill-opacity:1;fill-rule:nonzero;stroke:none"
               d="m 1373.3203,241.40234 h 120.8008 v -53.66406 c -1.2109,-27.71484 -24.0508,-49.55078 -51.793,-49.52344 H 1039.2188 L 1091.0117,0.261719 h 351.3164 c 104.7617,0 189.6836,84.921875 189.6836,189.675781 v 430.82422 h -454.8398 c -104.75,0 -189.67971,-84.92188 -189.67971,-189.67969 0,-104.75781 84.92971,-189.67969 189.67971,-189.67969 z m 69.0078,137.95313 h -265.4179 c -28.6016,0 -51.7891,23.1875 -51.7891,51.79297 0,28.60156 23.1875,51.78906 51.7891,51.78906 h 316.8906 V 379.35547 h -51.4727"
               id="path2147" /></g><g
             clip-path="url(#clip5)"
             clip-rule="nonzero"
             id="g2153"
             transform="matrix(0.58628332,0,0,0.58628332,-678.11962,-957.32992)"><path
               style="fill:#007aa8;fill-opacity:1;fill-rule:nonzero;stroke:none"
               d="m 626.19922,0 -51.72656,137.95312 h 172.46093 v 482.8086 H 884.88672 V 137.95312 H 1022.8398 L 1074.5586,0 H 626.19922"
               id="path2151" /></g><g
             aria-label="CLUB"
             id="text2621"
             style="font-size:433.29px;fill:#009197;stroke-width:6.77016"
             transform="matrix(0.76085551,0,0,0.66887748,244.1372,-194.02767)"><path
               d="m 1018.7795,-621.62001 q -23.45361,12.16936 -48.89861,18.36466 -25.44496,6.19531 -53.10263,6.19531 -82.53025,0 -130.76519,-46.02227 -48.23485,-46.24355 -48.23485,-125.2337 0,-79.21138 48.23485,-125.2336 48.23494,-46.24358 130.76519,-46.24358 27.65767,0 53.10263,6.19531 25.445,6.19532 48.89861,18.36458 v 68.36962 q -23.67481,-16.15199 -46.68601,-23.67482 -23.01112,-7.52292 -48.45612,-7.52292 -45.57973,0 -71.68855,29.20652 -26.10875,29.20642 -26.10875,80.53889 0,51.11129 26.10875,80.31771 26.10882,29.20646 71.68855,29.20646 25.445,0 48.45612,-7.52288 23.0112,-7.52286 46.68601,-23.67492 z"
               style="font-size:649.935px;fill:#007aa8;fill-opacity:1;stroke-width:4.72024"
               id="path2791" /><path
               d="m 1077.6143,-825.40261 h 55.455 v 173.13471 h 97.3702 v 41.9153 h -152.8252 z"
               style="font-size:361.075px;fill:#4d4d4d;stroke-width:5.5311"
               id="path2793" /><path
               d="m 1273.7008,-809.94916 h 50.6779 v 117.80968 q 0,24.35173 7.8978,34.8822 8.0295,10.39883 26.063,10.39883 18.165,0 26.0629,-10.39883 8.0295,-10.53047 8.0295,-34.8822 v -117.80968 h 50.6779 v 117.80968 q 0,41.727 -20.9294,62.12979 -20.9292,20.4028 -63.8409,20.4028 -42.78,0 -63.7094,-20.4028 -20.9293,-20.40279 -20.9293,-62.12979 z"
               style="font-size:361.075px;fill:#008080;stroke-width:5.05463"
               id="path2795" /><path
               d="m 1596.1448,-811.84978 q 19.7312,0 29.9219,-8.67308 10.1908,-8.67294 10.1908,-25.58531 0,-16.69556 -10.1908,-25.36852 -10.1907,-8.88988 -29.9219,-8.88988 h -46.1837 v 68.51679 z m 2.8188,141.58674 q 25.1517,0 37.7275,-10.62444 12.7927,-10.62443 12.7927,-32.0901 0,-21.03205 -12.5758,-31.43964 -12.5759,-10.62443 -37.9444,-10.62443 h -49.0025 v 84.77861 z m 77.6233,-116.43505 q 26.8863,7.80569 41.6304,28.83772 14.7442,21.03202 14.7442,51.60436 0,46.83421 -31.6565,69.81768 -31.6565,22.98345 -96.2702,22.98345 h -138.5514 v -323.71984 h 125.325 q 67.4325,0 97.5713,20.38158 30.3554,20.38158 30.3554,65.26428 0,23.63397 -11.058,40.32953 -11.0581,16.47875 -32.0902,24.50124 z"
               style="font-size:361.075px;fill:#1a1a1a;stroke-width:8.32608"
               id="path2797" /></g></g></g></g></g></svg>
